<svg width="128" height="60" viewBox="0 0 128 60" fill="none" xmlns="http://www.w3.org/2000/svg">
<path d="M25.4834 14.2933C26.0808 14.2933 26.5941 14.5079 27.0234 14.9373C27.4528 15.3666 27.6674 15.8799 27.6674 16.4773C27.6674 17.0746 27.4528 17.5879 27.0234 18.0173C26.5941 18.4466 26.0808 18.6613 25.4834 18.6613C24.8674 18.6613 24.3448 18.4466 23.9154 18.0173C23.5048 17.5879 23.2994 17.0746 23.2994 16.4773C23.2994 15.8613 23.5048 15.3479 23.9154 14.9373C24.3448 14.5079 24.8674 14.2933 25.4834 14.2933ZM30.4954 14.2933C31.0928 14.2933 31.6061 14.5079 32.0354 14.9373C32.4648 15.3666 32.6794 15.8799 32.6794 16.4773C32.6794 17.0746 32.4648 17.5879 32.0354 18.0173C31.6061 18.4466 31.0928 18.6613 30.4954 18.6613C29.8794 18.6613 29.3568 18.4466 28.9274 18.0173C28.5168 17.5879 28.3114 17.0746 28.3114 16.4773C28.3114 15.8613 28.5168 15.3479 28.9274 14.9373C29.3568 14.5079 29.8794 14.2933 30.4954 14.2933ZM32.6794 19.6973V28.3493C32.6794 30.0666 32.0261 31.4106 30.7194 32.3813C29.6554 33.1839 28.2741 33.5853 26.5754 33.5853C24.3354 33.5853 22.6088 32.7733 21.3954 31.1493C20.6114 29.9733 20.2194 28.6106 20.2194 27.0613C20.2194 24.9706 20.9194 23.2346 22.3194 21.8533C23.5701 20.6213 25.0821 20.0053 26.8554 20.0053C27.7701 20.0053 28.6101 20.2106 29.3754 20.6213L30.5514 19.6973H32.6794ZM28.3674 23.9253C27.8448 23.7759 27.4154 23.7013 27.0794 23.7013C26.2954 23.7013 25.6608 23.9999 25.1754 24.5973C24.6901 25.1946 24.4474 25.9973 24.4474 27.0053C24.4474 27.9199 24.6434 28.6479 25.0354 29.1893C25.4274 29.7119 25.9408 29.9733 26.5754 29.9733C27.1168 29.9733 27.5648 29.7959 27.9194 29.4413C28.2181 29.1239 28.3674 28.7506 28.3674 28.3213V23.9253ZM43.1449 20.4533V32.2693C43.1449 34.8079 42.3235 36.7493 40.6809 38.0933C39.7289 38.8959 38.5995 39.4559 37.2929 39.7733C36.6395 39.9226 35.9115 39.9973 35.1089 39.9973L34.3809 39.9413L32.6169 37.7293V36.2453C32.6729 36.2639 32.7755 36.2826 32.9249 36.3013C33.4102 36.3946 33.8395 36.4413 34.2129 36.4413C35.7622 36.4039 36.9102 36.0213 37.6569 35.2933C38.4222 34.5279 38.8049 33.3519 38.8049 31.7653V20.4533H43.1449ZM53.1022 14.2933C53.6995 14.2933 54.2128 14.5079 54.6422 14.9373C55.0715 15.3479 55.2862 15.8613 55.2862 16.4773C55.2862 17.0746 55.0715 17.5879 54.6422 18.0173C54.2128 18.4466 53.6995 18.6613 53.1022 18.6613C52.4862 18.6613 51.9635 18.4466 51.5342 18.0173C51.1048 17.5879 50.8902 17.0746 50.8902 16.4773C50.8902 15.8799 51.1048 15.3666 51.5342 14.9373C51.9635 14.5079 52.4862 14.2933 53.1022 14.2933ZM55.2582 20.4533V29.7213H56.6582V33.3333H55.2022C54.9968 35.4986 54.0542 37.1973 52.3742 38.4293C50.9742 39.4559 49.3222 39.9693 47.4182 39.9693C47.1942 39.9693 46.8862 39.9599 46.4942 39.9413L44.7302 37.7293V36.2453C44.7862 36.2639 44.8888 36.2826 45.0382 36.3013C45.5235 36.3946 45.9528 36.4413 46.3262 36.4413C47.8195 36.4226 48.9488 36.0586 49.7142 35.3493C50.5168 34.5839 50.9182 33.3893 50.9182 31.7653V20.4533H55.2582ZM60.1899 20.9293C61.9632 20.3879 63.5965 20.1173 65.0899 20.1173C67.3112 20.1173 69.1872 20.8173 70.7179 22.2173C72.1365 23.5239 72.8459 25.1199 72.8459 27.0053V29.4693C72.8459 29.5439 72.8552 29.6279 72.8739 29.7213H73.7419V33.3333H73.1819L72.1459 32.0453H72.0619C71.3712 32.9039 70.4659 33.3333 69.3459 33.3333H56.4659V29.7213H68.1139C68.3752 29.7213 68.5059 29.5906 68.5059 29.3293V27.4813C68.5059 26.4173 68.0765 25.5399 67.2179 24.8493C66.3779 24.1399 65.3232 23.7853 64.0539 23.7853C63.0085 23.7853 61.7205 23.9813 60.1899 24.3733V20.9293ZM64.6699 34.6213C65.2672 34.6213 65.7805 34.8359 66.2099 35.2653C66.6392 35.6946 66.8539 36.2173 66.8539 36.8333C66.8539 37.4306 66.6392 37.9439 66.2099 38.3733C65.7805 38.8026 65.2672 39.0173 64.6699 39.0173C64.0539 39.0173 63.5312 38.8026 63.1019 38.3733C62.6912 37.9439 62.4859 37.4306 62.4859 36.8333C62.4859 36.2173 62.6912 35.6946 63.1019 35.2653C63.5312 34.8359 64.0539 34.6213 64.6699 34.6213ZM82.8804 13.2853V29.8613C82.8804 30.6826 82.619 31.4199 82.0964 32.0733C81.387 32.9133 80.4817 33.3333 79.3804 33.3333H73.5284V29.7213H78.1484C78.2604 29.7213 78.3537 29.6933 78.4284 29.6373C78.5217 29.5626 78.5684 29.4599 78.5684 29.3293V13.2853H82.8804ZM91.068 13.2853V32.2693L88.884 34.0333H86.756V13.2853H91.068Z" fill="white"/>
<path d="M66.8884 42.26V50.278C66.8884 52.0007 66.3311 53.318 65.2164 54.23C64.5704 54.7747 63.8041 55.1547 62.9174 55.37C62.4741 55.4713 61.9801 55.522 61.4354 55.522L60.9414 55.484L59.7444 53.983V52.976C59.7824 52.9887 59.8521 53.0013 59.9534 53.014C60.2827 53.0773 60.5741 53.109 60.8274 53.109C61.8787 53.0837 62.6577 52.824 63.1644 52.33C63.6837 51.8107 63.9434 51.0127 63.9434 49.936V42.26H66.8884ZM73.5501 51C72.2075 51 71.1245 50.525 70.3011 49.575C69.5918 48.7643 69.2371 47.7953 69.2371 46.668C69.2371 45.2367 69.6108 44.1347 70.3581 43.362C71.2321 42.4753 72.3468 42.032 73.7021 42.032C74.6775 42.032 75.5008 42.2537 76.1721 42.697C77.1855 43.3683 77.6921 44.331 77.6921 45.585V48.549H78.3001V51H77.6731C77.5211 52.3933 76.9638 53.4827 76.0011 54.268C75.4185 54.762 74.6965 55.1167 73.8351 55.332C73.2525 55.484 72.6381 55.56 71.9921 55.56C71.7135 55.56 71.4221 55.541 71.1181 55.503L69.8451 53.945V52.919C70.4278 53.0457 70.9851 53.109 71.5171 53.109C73.2905 53.109 74.3418 52.406 74.6711 51H73.5501ZM74.7661 45.604C74.7661 45.2113 74.6205 44.9073 74.3291 44.692C74.1391 44.5527 73.9238 44.483 73.6831 44.483C73.2145 44.483 72.8345 44.6667 72.5431 45.034C72.2645 45.3887 72.1251 45.8637 72.1251 46.459C72.1251 47.8523 72.8155 48.549 74.1961 48.549H74.7661V45.604ZM84.5188 42.26V48.378C84.5188 48.4287 84.5251 48.4857 84.5378 48.549H85.4878V51H84.8988L84.0628 50.126H84.0058C83.5371 50.7087 82.9228 51 82.1628 51H78.1918V48.549H81.2128C81.3394 48.549 81.4344 48.511 81.4978 48.435C81.5611 48.3717 81.5928 48.283 81.5928 48.169V42.26H84.5188ZM79.6168 51.874C80.0348 51.874 80.3894 52.0197 80.6808 52.311C80.9721 52.6023 81.1178 52.957 81.1178 53.375C81.1178 53.7803 80.9721 54.1287 80.6808 54.42C80.3894 54.7113 80.0348 54.857 79.6168 54.857C79.2114 54.857 78.8631 54.7113 78.5718 54.42C78.2804 54.1287 78.1348 53.7803 78.1348 53.375C78.1348 52.957 78.2804 52.6023 78.5718 52.311C78.8631 52.0197 79.2114 51.874 79.6168 51.874ZM83.0178 51.874C83.4358 51.874 83.7904 52.0197 84.0818 52.311C84.3731 52.6023 84.5188 52.957 84.5188 53.375C84.5188 53.7803 84.3731 54.1287 84.0818 54.42C83.7904 54.7113 83.4358 54.857 83.0178 54.857C82.6124 54.857 82.2641 54.7113 81.9728 54.42C81.6941 54.1287 81.5548 53.7803 81.5548 53.375C81.5548 52.957 81.6941 52.6023 81.9728 52.311C82.2641 52.0197 82.6124 51.874 83.0178 51.874ZM90.1989 38.08C90.6169 38.08 90.9652 38.2257 91.2439 38.517C91.5352 38.7957 91.6809 39.144 91.6809 39.562C91.6809 39.9673 91.5352 40.3157 91.2439 40.607C90.9652 40.8983 90.6169 41.044 90.1989 41.044C89.7936 41.044 89.4452 40.8983 89.1539 40.607C88.8626 40.3157 88.7169 39.9673 88.7169 39.562C88.7169 39.1567 88.8626 38.8083 89.1539 38.517C89.4452 38.2257 89.7936 38.08 90.1989 38.08ZM91.6809 42.26V48.644C91.6809 49.2013 91.4972 49.7017 91.1299 50.145C90.6486 50.715 90.0406 51 89.3059 51H85.3349V48.549H88.4699C88.5459 48.549 88.6092 48.53 88.6599 48.492C88.7232 48.4413 88.7549 48.3717 88.7549 48.283V42.26H91.6809Z" fill="white"/>
<path d="M107.895 27.1148L102.214 30.1239L104.382 39.5811L118.367 32.7031L127.125 28.1895C127.125 28.1895 129.31 22.1713 125.595 18.5173L107.895 27.1148Z" fill="#FF5500"/>
<path d="M118.232 32.7696L104.396 39.5824L110.445 43.2621L124.867 35.9543L118.232 32.7696Z" fill="#BD3827"/>
<path d="M111.347 42.8051L106.13 45.3844C106.13 45.3844 108.769 53.337 114.014 60C114.014 60 118.165 54.6266 120.788 48.6084C123.41 42.5902 124.939 35.9272 124.939 35.9272L111.347 42.8051Z" fill="#FF5500"/>
<path d="M111.347 42.8051L106.13 45.3844C106.13 45.3844 108.769 53.337 114.014 60C114.014 60 118.165 54.6266 120.788 48.6084C123.41 42.5902 124.939 35.9272 124.939 35.9272L111.347 42.8051Z" fill="#FF5500"/>
<path d="M121.894 15.9315C120.146 15.2867 108.127 15.7165 108.127 15.7165C103.757 15.9315 100.261 22.3796 101.135 23.0244C101.796 23.5122 106.208 26.1209 107.892 27.1082L125.592 18.5107C124.862 17.8873 122.987 16.3348 121.894 15.9315Z" fill="#BD3827"/>
<path d="M103.289 3.43898L108.97 13.7559H119.459L125.141 3.22404L117.274 8.38251L114.215 0L110.937 8.38251L103.289 3.43898Z" fill="url(#paint0_linear_190_728)"/>
<defs>
<linearGradient id="paint0_linear_190_728" x1="114.87" y1="4.08379" x2="114.659" y2="13.971" gradientUnits="userSpaceOnUse">
<stop stop-color="#BCD140"/>
<stop offset="0.705" stop-color="#41B549"/>
</linearGradient>
</defs>
</svg>
