<svg width="85" height="43" viewBox="0 0 85 43" fill="none" xmlns="http://www.w3.org/2000/svg">
<path d="M17.0967 18.26C17.4807 18.26 17.8107 18.398 18.0867 18.674C18.3627 18.95 18.5007 19.28 18.5007 19.664C18.5007 20.048 18.3627 20.378 18.0867 20.654C17.8107 20.93 17.4807 21.068 17.0967 21.068C16.7007 21.068 16.3647 20.93 16.0887 20.654C15.8247 20.378 15.6927 20.048 15.6927 19.664C15.6927 19.268 15.8247 18.938 16.0887 18.674C16.3647 18.398 16.7007 18.26 17.0967 18.26ZM20.3187 18.26C20.7027 18.26 21.0327 18.398 21.3087 18.674C21.5847 18.95 21.7227 19.28 21.7227 19.664C21.7227 20.048 21.5847 20.378 21.3087 20.654C21.0327 20.93 20.7027 21.068 20.3187 21.068C19.9227 21.068 19.5867 20.93 19.3107 20.654C19.0467 20.378 18.9147 20.048 18.9147 19.664C18.9147 19.268 19.0467 18.938 19.3107 18.674C19.5867 18.398 19.9227 18.26 20.3187 18.26ZM21.7227 21.734V27.296C21.7227 28.4 21.3027 29.264 20.4627 29.888C19.7787 30.404 18.8907 30.662 17.7987 30.662C16.3587 30.662 15.2487 30.14 14.4687 29.096C13.9647 28.34 13.7127 27.464 13.7127 26.468C13.7127 25.124 14.1627 24.008 15.0627 23.12C15.8667 22.328 16.8387 21.932 17.9787 21.932C18.5667 21.932 19.1067 22.064 19.5987 22.328L20.3547 21.734H21.7227ZM18.9507 24.452C18.6147 24.356 18.3387 24.308 18.1227 24.308C17.6187 24.308 17.2107 24.5 16.8987 24.884C16.5867 25.268 16.4307 25.784 16.4307 26.432C16.4307 27.02 16.5567 27.488 16.8087 27.836C17.0607 28.172 17.3907 28.34 17.7987 28.34C18.1467 28.34 18.4347 28.226 18.6627 27.998C18.8547 27.794 18.9507 27.554 18.9507 27.278V24.452ZM28.4504 22.22V29.816C28.4504 31.448 27.9224 32.696 26.8664 33.56C26.2544 34.076 25.5284 34.436 24.6884 34.64C24.2684 34.736 23.8004 34.784 23.2844 34.784L22.8164 34.748L21.6824 33.326V32.372C21.7184 32.384 21.7844 32.396 21.8804 32.408C22.1924 32.468 22.4684 32.498 22.7084 32.498C23.7044 32.474 24.4424 32.228 24.9224 31.76C25.4144 31.268 25.6604 30.512 25.6604 29.492V22.22H28.4504ZM34.8515 18.26C35.2355 18.26 35.5655 18.398 35.8415 18.674C36.1175 18.938 36.2555 19.268 36.2555 19.664C36.2555 20.048 36.1175 20.378 35.8415 20.654C35.5655 20.93 35.2355 21.068 34.8515 21.068C34.4555 21.068 34.1195 20.93 33.8435 20.654C33.5675 20.378 33.4295 20.048 33.4295 19.664C33.4295 19.28 33.5675 18.95 33.8435 18.674C34.1195 18.398 34.4555 18.26 34.8515 18.26ZM36.2375 22.22V28.178H37.1375V30.5H36.2015C36.0695 31.892 35.4635 32.984 34.3835 33.776C33.4835 34.436 32.4215 34.766 31.1975 34.766C31.0535 34.766 30.8555 34.76 30.6035 34.748L29.4695 33.326V32.372C29.5055 32.384 29.5715 32.396 29.6675 32.408C29.9795 32.468 30.2555 32.498 30.4955 32.498C31.4555 32.486 32.1815 32.252 32.6735 31.796C33.1895 31.304 33.4475 30.536 33.4475 29.492V22.22H36.2375ZM39.4079 22.526C40.5479 22.178 41.5979 22.004 42.5579 22.004C43.9859 22.004 45.1919 22.454 46.1759 23.354C47.0879 24.194 47.5439 25.22 47.5439 26.432V28.016C47.5439 28.064 47.5499 28.118 47.5619 28.178H48.1199V30.5H47.7599L47.0939 29.672H47.0399C46.5959 30.224 46.0139 30.5 45.2939 30.5H37.0139V28.178H44.5019C44.6699 28.178 44.7539 28.094 44.7539 27.926V26.738C44.7539 26.054 44.4779 25.49 43.9259 25.046C43.3859 24.59 42.7079 24.362 41.8919 24.362C41.2199 24.362 40.3919 24.488 39.4079 24.74V22.526ZM42.2879 31.328C42.6719 31.328 43.0019 31.466 43.2779 31.742C43.5539 32.018 43.6919 32.354 43.6919 32.75C43.6919 33.134 43.5539 33.464 43.2779 33.74C43.0019 34.016 42.6719 34.154 42.2879 34.154C41.8919 34.154 41.5559 34.016 41.2799 33.74C41.0159 33.464 40.8839 33.134 40.8839 32.75C40.8839 32.354 41.0159 32.018 41.2799 31.742C41.5559 31.466 41.8919 31.328 42.2879 31.328ZM53.9947 17.612V28.268C53.9947 28.796 53.8267 29.27 53.4907 29.69C53.0347 30.23 52.4527 30.5 51.7447 30.5H47.9827V28.178H50.9527C51.0247 28.178 51.0847 28.16 51.1327 28.124C51.1927 28.076 51.2227 28.01 51.2227 27.926V17.612H53.9947ZM59.2581 17.612V29.816L57.8541 30.95H56.4861V17.612H59.2581Z" fill="black"/>
<path d="M43.1315 36.0266V39.8246C43.1315 40.6406 42.8675 41.2646 42.3395 41.6966C42.0335 41.9546 41.6705 42.1346 41.2505 42.2366C41.0405 42.2846 40.8065 42.3086 40.5485 42.3086L40.3145 42.2906L39.7475 41.5796V41.1026C39.7655 41.1086 39.7985 41.1146 39.8465 41.1206C40.0025 41.1506 40.1405 41.1656 40.2605 41.1656C40.7585 41.1536 41.1275 41.0306 41.3675 40.7966C41.6135 40.5506 41.7365 40.1726 41.7365 39.6626V36.0266H43.1315ZM46.287 40.1666C45.651 40.1666 45.138 39.9416 44.748 39.4916C44.412 39.1076 44.244 38.6486 44.244 38.1146C44.244 37.4366 44.421 36.9146 44.775 36.5486C45.189 36.1286 45.717 35.9186 46.359 35.9186C46.821 35.9186 47.211 36.0236 47.529 36.2336C48.009 36.5516 48.249 37.0076 48.249 37.6016V39.0056H48.537V40.1666H48.24C48.168 40.8266 47.904 41.3426 47.448 41.7146C47.172 41.9486 46.83 42.1166 46.422 42.2186C46.146 42.2906 45.855 42.3266 45.549 42.3266C45.417 42.3266 45.279 42.3176 45.135 42.2996L44.532 41.5616V41.0756C44.808 41.1356 45.072 41.1656 45.324 41.1656C46.164 41.1656 46.662 40.8326 46.818 40.1666H46.287ZM46.863 37.6106C46.863 37.4246 46.794 37.2806 46.656 37.1786C46.566 37.1126 46.464 37.0796 46.35 37.0796C46.128 37.0796 45.948 37.1666 45.81 37.3406C45.678 37.5086 45.612 37.7336 45.612 38.0156C45.612 38.6756 45.939 39.0056 46.593 39.0056H46.863V37.6106ZM51.4827 36.0266V38.9246C51.4827 38.9486 51.4857 38.9756 51.4917 39.0056H51.9417V40.1666H51.6627L51.2667 39.7526H51.2397C51.0177 40.0286 50.7267 40.1666 50.3667 40.1666H48.4857V39.0056H49.9167C49.9767 39.0056 50.0217 38.9876 50.0517 38.9516C50.0817 38.9216 50.0967 38.8796 50.0967 38.8256V36.0266H51.4827ZM49.1607 40.5806C49.3587 40.5806 49.5267 40.6496 49.6647 40.7876C49.8027 40.9256 49.8717 41.0936 49.8717 41.2916C49.8717 41.4836 49.8027 41.6486 49.6647 41.7866C49.5267 41.9246 49.3587 41.9936 49.1607 41.9936C48.9687 41.9936 48.8037 41.9246 48.6657 41.7866C48.5277 41.6486 48.4587 41.4836 48.4587 41.2916C48.4587 41.0936 48.5277 40.9256 48.6657 40.7876C48.8037 40.6496 48.9687 40.5806 49.1607 40.5806ZM50.7717 40.5806C50.9697 40.5806 51.1377 40.6496 51.2757 40.7876C51.4137 40.9256 51.4827 41.0936 51.4827 41.2916C51.4827 41.4836 51.4137 41.6486 51.2757 41.7866C51.1377 41.9246 50.9697 41.9936 50.7717 41.9936C50.5797 41.9936 50.4147 41.9246 50.2767 41.7866C50.1447 41.6486 50.0787 41.4836 50.0787 41.2916C50.0787 41.0936 50.1447 40.9256 50.2767 40.7876C50.4147 40.6496 50.5797 40.5806 50.7717 40.5806ZM54.1733 34.0466C54.3713 34.0466 54.5363 34.1156 54.6683 34.2536C54.8063 34.3856 54.8753 34.5506 54.8753 34.7486C54.8753 34.9406 54.8063 35.1056 54.6683 35.2436C54.5363 35.3816 54.3713 35.4506 54.1733 35.4506C53.9813 35.4506 53.8163 35.3816 53.6783 35.2436C53.5403 35.1056 53.4713 34.9406 53.4713 34.7486C53.4713 34.5566 53.5403 34.3916 53.6783 34.2536C53.8163 34.1156 53.9813 34.0466 54.1733 34.0466ZM54.8753 36.0266V39.0506C54.8753 39.3146 54.7883 39.5516 54.6143 39.7616C54.3863 40.0316 54.0983 40.1666 53.7503 40.1666H51.8693V39.0056H53.3543C53.3903 39.0056 53.4203 38.9966 53.4443 38.9786C53.4743 38.9546 53.4893 38.9216 53.4893 38.8796V36.0266H54.8753Z" fill="black"/>
<path d="M70.3522 19.4804L66.3542 21.5867L67.8798 28.2068L77.7212 23.3922L83.8841 20.2326C83.8841 20.2326 85.4218 16.0199 82.8077 13.4621L70.3522 19.4804Z" fill="#FF5500"/>
<path d="M77.6261 23.4387L67.8901 28.2077L72.1468 30.7835L82.2957 25.668L77.6261 23.4387Z" fill="#BD3827"/>
<path d="M72.7814 30.4636L69.11 32.2691C69.11 32.2691 70.9673 37.8359 74.6578 42.5C74.6578 42.5 77.5795 38.7386 79.4247 34.5259C81.27 30.3131 82.3464 25.649 82.3464 25.649L72.7814 30.4636Z" fill="#FF5500"/>
<path d="M72.7814 30.4636L69.11 32.2691C69.11 32.2691 70.9673 37.8359 74.6578 42.5C74.6578 42.5 77.5795 38.7386 79.4247 34.5259C81.27 30.3131 82.3464 25.649 82.3464 25.649L72.7814 30.4636Z" fill="#FF5500"/>
<path d="M80.2032 11.652C78.973 11.2007 70.5156 11.5016 70.5156 11.5016C67.4402 11.652 64.9798 16.1657 65.5949 16.6171C66.0603 16.9586 69.1652 18.7846 70.3498 19.4757L82.8053 13.4575C82.2918 13.0211 80.9725 11.9343 80.2032 11.652Z" fill="#BD3827"/>
<path d="M67.1109 2.90728L71.109 10.1291H78.49L82.488 2.75683L76.9523 6.36776L74.7995 0.5L72.4929 6.36776L67.1109 2.90728Z" fill="url(#paint0_linear_465_1125)"/>
<defs>
<linearGradient id="paint0_linear_465_1125" x1="75.2608" y1="3.35865" x2="75.1136" y2="10.2797" gradientUnits="userSpaceOnUse">
<stop stop-color="#BCD140"/>
<stop offset="0.705" stop-color="#41B549"/>
</linearGradient>
</defs>
</svg>
