<svg width="64" height="64" viewBox="0 0 64 64" fill="none" xmlns="http://www.w3.org/2000/svg">
<path d="M21.0741 3.43898L26.7555 13.7559H37.2444L42.9259 3.22404L35.0592 8.38251L32 0L28.7222 8.38251L21.0741 3.43898Z" fill="url(#paint0_linear_391_1300)"/>
<path d="M25.5136 27.2945L19.8321 30.3036L22.0002 39.7608L35.9854 32.8828L44.7432 28.3692C44.7432 28.3692 46.9284 22.3509 43.2136 18.697L25.5136 27.2945Z" fill="#FF5500"/>
<path d="M35.8502 32.9493L22.0148 39.7621L28.0638 43.4418L42.486 36.134L35.8502 32.9493Z" fill="#BD3827"/>
<path d="M28.9657 42.9848L23.7484 45.5641C23.7484 45.5641 26.3877 53.5167 31.6321 60.1797C31.6321 60.1797 35.784 54.8063 38.4062 48.7881C41.0284 42.7699 42.558 36.1069 42.558 36.1069L28.9657 42.9848Z" fill="#FF5500"/>
<path d="M28.9657 42.9848L23.7484 45.5641C23.7484 45.5641 26.3877 53.5167 31.6321 60.1797C31.6321 60.1797 35.784 54.8063 38.4062 48.7881C41.0284 42.7699 42.558 36.1069 42.558 36.1069L28.9657 42.9848Z" fill="#FF5500"/>
<path d="M39.5124 16.1112C37.7643 15.4664 25.7458 15.8962 25.7458 15.8962C21.3754 16.1112 17.8791 22.5592 18.7532 23.2041C19.4145 23.6919 23.8268 26.3006 25.5102 27.2878L43.2102 18.6904C42.4805 18.067 40.6058 16.5144 39.5124 16.1112Z" fill="#BD3827"/>
<defs>
<linearGradient id="paint0_linear_391_1300" x1="32.6555" y1="4.08379" x2="32.4441" y2="13.971" gradientUnits="userSpaceOnUse">
<stop stop-color="#BCD140"/>
<stop offset="0.705" stop-color="#41B549"/>
</linearGradient>
</defs>
</svg>
